<svg width="38" height="38" viewBox="0 0 38 38" fill="none" xmlns="http://www.w3.org/2000/svg">
<g id="btnback">
<g id="Group">
<path id="Vector" d="M4.08496 19C4.08496 25.9411 9.07398 32.1336 15.8676 33.5855C19.2622 34.311 22.8718 33.8223 25.9433 32.2039C28.8993 30.6462 31.2884 28.0926 32.6423 25.0374C34.051 21.8595 34.2965 18.2111 33.3358 14.8709C32.4094 11.6485 30.376 8.7913 27.6465 6.84608C21.94 2.77894 13.9247 3.32272 8.81102 8.10768C5.81434 10.9117 4.08496 14.8952 4.08496 19ZM11.8544 18.1944L16.0196 14.0296C17.0593 12.9899 18.6716 14.6023 17.6316 15.6419L15.5393 17.7338L25.2133 17.7338C25.9034 17.7338 26.4795 18.3103 26.4795 19.0004C26.4795 19.6905 25.9034 20.2669 25.2133 20.2669L15.491 20.2669L17.5423 22.3679C18.5679 23.4175 16.9407 25.015 15.9109 23.9605L11.8449 19.7965C11.4087 19.3504 11.4129 18.636 11.8544 18.1944Z" fill="#A5A5A5"/>
</g>
</g>
</svg>
