<svg width="28" height="28" viewBox="0 0 28 28" fill="none" xmlns="http://www.w3.org/2000/svg">
<g id="calendar-silhouette 1">
<path id="Vector" d="M22.167 5.83362H21.0003V3.50028C21.0003 3.19087 20.8774 2.89412 20.6586 2.67533C20.4398 2.45653 20.143 2.33362 19.8336 2.33362C19.5242 2.33362 19.2275 2.45653 19.0087 2.67533C18.7899 2.89412 18.667 3.19087 18.667 3.50028V5.83362H9.33362V3.50028C9.33362 3.19087 9.2107 2.89412 8.99191 2.67533C8.77312 2.45653 8.47637 2.33362 8.16695 2.33362C7.85753 2.33362 7.56079 2.45653 7.34199 2.67533C7.1232 2.89412 7.00028 3.19087 7.00028 3.50028V5.83362H5.83362C4.90536 5.83362 4.01512 6.20237 3.35874 6.85874C2.70237 7.51512 2.33362 8.40536 2.33362 9.33362V10.5003H25.667V9.33362C25.667 8.40536 25.2982 7.51512 24.6418 6.85874C23.9854 6.20237 23.0952 5.83362 22.167 5.83362Z" fill="#7879F1"/>
<path id="Vector_2" d="M2.33362 22.1669C2.33362 23.0952 2.70237 23.9854 3.35874 24.6418C4.01512 25.2982 4.90536 25.6669 5.83362 25.6669H22.167C23.0952 25.6669 23.9854 25.2982 24.6418 24.6418C25.2982 23.9854 25.667 23.0952 25.667 22.1669V12.8336H2.33362V22.1669Z" fill="#7879F1"/>
</g>
</svg>
