<svg width="28" height="28" viewBox="0 0 28 28" fill="none" xmlns="http://www.w3.org/2000/svg">
<g id="contact 1">
<path id="Vector" d="M22.1667 7.21611V5.83337C22.1656 4.90543 21.7966 4.01578 21.1404 3.35963C20.4843 2.70347 19.5946 2.33439 18.6667 2.33337H7C6.08275 2.3329 5.20225 2.69388 4.5493 3.33809C3.89635 3.98231 3.52354 4.85786 3.51167 5.77504C3.51085 5.79522 3.5 5.81261 3.5 5.83337V22.1667C3.50271 23.0941 3.87233 23.9828 4.52812 24.6386C5.18391 25.2944 6.07258 25.664 7 25.6667H21C21.9274 25.664 22.8161 25.2944 23.4719 24.6386C24.1277 23.9828 24.4973 23.0941 24.5 22.1667V10.5C24.4965 9.77904 24.2704 9.07671 23.8528 8.48896C23.4352 7.90121 22.8464 7.45669 22.1667 7.21611ZM18.6667 21C18.6657 21.3092 18.5425 21.6054 18.3239 21.824C18.1053 22.0426 17.8091 22.1658 17.5 22.1667H10.5C10.1909 22.1658 9.89465 22.0426 9.67606 21.824C9.45747 21.6054 9.33426 21.3092 9.33333 21C9.18985 20.0892 9.28901 19.1567 9.62083 18.2964C9.95264 17.4362 10.5054 16.6786 11.2233 16.1C10.7582 15.4984 10.504 14.7605 10.5 14C10.5 13.0718 10.8687 12.1815 11.5251 11.5252C12.1815 10.8688 13.0717 10.5 14 10.5C14.9283 10.5 15.8185 10.8688 16.4749 11.5252C17.1313 12.1815 17.5 13.0718 17.5 14C17.496 14.7605 17.2418 15.4984 16.7767 16.1C17.4942 16.6789 18.0466 17.4366 18.3784 18.2967C18.7102 19.1569 18.8096 20.0893 18.6667 21ZM19.8333 7.00004H7.14187C6.985 7.0161 6.82651 7.00027 6.67591 6.95352C6.52532 6.90676 6.38573 6.83004 6.26554 6.72797C6.14535 6.6259 6.04703 6.50059 5.9765 6.35956C5.90597 6.21853 5.86468 6.06469 5.85511 5.9073C5.84554 5.7499 5.86789 5.5922 5.92081 5.44366C5.97374 5.29512 6.05615 5.15882 6.16309 5.04294C6.27003 4.92706 6.3993 4.834 6.54312 4.76934C6.68694 4.70469 6.84234 4.66978 7 4.66671H18.6667C18.976 4.66702 19.2726 4.79003 19.4913 5.00876C19.71 5.22748 19.833 5.52405 19.8333 5.83337V7.00004Z" fill="#7879F1"/>
</g>
</svg>
