<svg width="28" height="28" viewBox="0 0 28 28" fill="none" xmlns="http://www.w3.org/2000/svg">
<g id="dashboard 1">
<path id="Vector" d="M14 2.33337C11.7518 2.33343 9.55158 2.98304 7.66391 4.20405C5.77623 5.42507 4.28154 7.16548 3.35965 9.21592C2.43775 11.2664 2.12792 13.5395 2.46742 15.7619C2.80692 17.9842 3.7813 20.0612 5.27333 21.7429C5.38236 21.8655 5.51603 21.9638 5.66561 22.0313C5.81519 22.0989 5.97733 22.1341 6.14144 22.1347C16.1002 22.1749 11.63 22.1662 21.83 22.1632C21.994 22.1633 22.1563 22.1288 22.3061 22.0618C22.4559 21.9949 22.5899 21.897 22.6992 21.7747C24.1999 20.0957 25.1826 18.0183 25.5287 15.7932C25.8748 13.5681 25.5696 11.2904 24.6498 9.23494C23.7301 7.17947 22.2351 5.4341 20.3454 4.20946C18.4556 2.98482 16.2519 2.33325 14 2.33337ZM19.3559 11.4411L17.3166 12.9344C17.4333 13.2778 17.4952 13.6374 17.5 14C17.5032 14.7827 17.2451 15.5441 16.7666 16.1634C16.2881 16.7828 15.6165 17.2247 14.8583 17.4191C14.1001 17.6135 13.2988 17.5492 12.5813 17.2365C11.8638 16.9238 11.2712 16.3805 10.8974 15.6929C10.5237 15.0052 10.3902 14.2124 10.5181 13.4402C10.646 12.6681 11.028 11.9607 11.6035 11.4303C12.1791 10.8998 12.9152 10.5767 13.6952 10.512C14.4752 10.4474 15.2545 10.645 15.9095 11.0735L17.9774 9.55889C18.2273 9.38212 18.5366 9.31063 18.8387 9.35984C19.1409 9.40906 19.4115 9.57503 19.5924 9.82197C19.7732 10.0689 19.8498 10.377 19.8056 10.6799C19.7614 10.9828 19.5999 11.2562 19.3559 11.4411Z" fill="#464366"/>
<path id="Vector_2" d="M14 15.1667C14.6443 15.1667 15.1667 14.6444 15.1667 14C15.1667 13.3557 14.6443 12.8334 14 12.8334C13.3556 12.8334 12.8333 13.3557 12.8333 14C12.8333 14.6444 13.3556 15.1667 14 15.1667Z" fill="#464366"/>
</g>
</svg>
